<svg width="26" height="26" viewBox="0 0 26 26" fill="none" xmlns="http://www.w3.org/2000/svg">
<path d="M4 23.6481C2.89543 23.6481 2 22.7526 2 21.6481V4C2 2.89543 2.89543 2 4 2H4.86407C5.53517 2 6.16154 2.33658 6.53191 2.89622L13.7294 13.7718C13.9497 14.1048 13.7109 14.5492 13.3116 14.5492V14.5492C12.9127 14.5492 12.6738 14.1055 12.8934 13.7725L20.063 2.89905C20.4331 2.33778 21.0604 2 21.7327 2H22.5946C23.6992 2 24.5946 2.89543 24.5946 4V21.6481C24.5946 22.7526 23.6992 23.6481 22.5946 23.6481H21.1902C20.0857 23.6481 19.1902 22.7526 19.1902 21.6481V11.4753C19.1902 11.2561 19.4001 11.0978 19.6109 11.158V11.158C19.8257 11.2194 19.9187 11.4721 19.795 11.6581L15.6618 17.8706C15.291 18.4279 14.666 18.7628 13.9967 18.7628H12.6016C11.9302 18.7628 11.3036 18.4259 10.9333 17.8659L6.82873 11.6583C6.70552 11.472 6.79882 11.2196 7.01362 11.1582V11.1582C7.22475 11.0979 7.43492 11.2564 7.43492 11.476V21.6481C7.43492 22.7526 6.53949 23.6481 5.43492 23.6481H4Z" fill="black"/>
<path d="M23.068 13.1446V5.96924H20.9307V13.1446H23.068Z" fill="white"/>
<path d="M6.27466 13.1446V5.96924H4.13733V13.1446H6.27466Z" fill="white"/>
<path d="M6.27467 11.7705V7.49585H5.05334V11.7705H6.27467Z" fill="black"/>
<path d="M23.0679 11.7705V7.49585H21.8466V11.7705H23.0679Z" fill="black"/>
</svg>
